<svg width="237" height="32" viewBox="0 0 237 32" fill="none" xmlns="http://www.w3.org/2000/svg">
<path d="M20.6016 28.8086H14.6055V18.8086L10.6016 28.8086L6.59766 18.8086V28.8086H0.601562V0.800781H6.59766L10.6016 10.8008L14.6055 0.800781H20.6016V28.8086ZM39.8008 26.7969L35.7969 30.7617H27.8086L23.8047 26.7969V2.79297H29.8008V24.8047H33.8047V2.79297H39.8008V26.7969ZM57.0273 31.9531H43.0234V4.00391H49.0195V25.9961H57.0273V31.9531ZM75.0352 28.0078H69.0391V16.9922H65.0352V28.0078H59.0391V0H65.0352V10.9961H69.0391V0H75.0352V28.0078ZM88.2578 25.1953V9.19922H84.2539V25.1953H88.2578ZM94.2539 27.207L90.25 31.1523H82.2617L78.2578 27.207V7.20703L82.2617 3.20312H90.25L94.2539 7.20703V27.207ZM111.48 31.9531H97.4766V4.00391H103.473V25.9961H111.48V31.9531ZM127.496 31.9531H113.492V4.00391H119.488V25.9961H127.496V31.9531ZM137.984 21.9922L136.5 13.3203L135.035 21.9922H137.984ZM145.699 31.9531H139.703L139.02 28.0078H133.98L133.297 31.9531H127.34L132.516 4.00391H140.504L145.699 31.9531ZM162.73 28.3984H156.734L152.73 17.207V28.3984H146.734V0.390625H152.73L156.734 11.6016V0.390625H162.73V28.3984ZM175.953 22.793V6.79688H171.949V22.793H175.953ZM181.949 24.8047L177.945 28.8086H165.953V0.800781H177.945L181.949 4.80469V24.8047ZM211.188 22.793V6.79688H207.184V22.793H211.188ZM217.184 24.8047L213.18 28.8086H201.188V0.800781H213.18L217.184 4.80469V24.8047ZM230.406 14.6094V9.60938H226.402V14.6094H230.406ZM236.402 31.5625H230.406V20.6055H226.402V31.5625H220.406V3.59375H232.398L236.402 7.59766V14.8047L233.609 17.5977L236.402 20.3906V31.5625Z" fill="white"/>
</svg>
